<?xml version="1.0" encoding="UTF-8" standalone="no"?>
<!DOCTYPE svg PUBLIC "-//W3C//DTD SVG 1.1//EN" "http://www.w3.org/Graphics/SVG/1.1/DTD/svg11.dtd">
<svg width="100%" height="100%" viewBox="0 0 91 91" version="1.1" xmlns="http://www.w3.org/2000/svg" xmlns:xlink="http://www.w3.org/1999/xlink" xml:space="preserve" xmlns:serif="http://www.serif.com/" style="fill-rule:evenodd;clip-rule:evenodd;stroke-linecap:round;stroke-linejoin:round;stroke-miterlimit:1.5;">
    <g transform="matrix(1,0,0,1,-898.425,-404.755)">
        <g transform="matrix(0.564889,0,0,0.564889,801.083,403.05)">
            <circle cx="252.417" cy="83.114" r="80.095" style="fill:rgb(107,130,161);"/>
        </g>
        <g transform="matrix(0.281785,0,0,0.281785,678.469,302.012)">
            <g transform="matrix(3.04582,0,0,3.25659,-578.713,-56.8298)">
                <path d="M529.768,164.444C529.768,162.132 527.761,160.255 525.289,160.255L472.708,160.255C470.236,160.255 468.23,162.132 468.23,164.444L468.23,192.991C468.23,195.303 470.236,197.18 472.708,197.18L525.289,197.18C527.761,197.18 529.768,195.303 529.768,192.991L529.768,164.444Z" style="fill:none;stroke:white;stroke-width:3.38px;"/>
            </g>
            <g transform="matrix(3.04582,0,0,3.04582,-559.178,-0.292358)">
                <path d="M462.977,154.253C462.977,154.253 483.94,167.188 490.588,171.29C491.809,172.044 493.354,172.034 494.566,171.265C501.097,167.12 521.534,154.149 521.534,154.149" style="fill:none;stroke:white;stroke-width:3.5px;"/>
            </g>
        </g>
    </g>
</svg>
