<?xml version="1.0" encoding="UTF-8" standalone="no"?>
<!DOCTYPE svg PUBLIC "-//W3C//DTD SVG 1.1//EN" "http://www.w3.org/Graphics/SVG/1.1/DTD/svg11.dtd">
<svg width="100%" height="100%" viewBox="0 0 91 91" version="1.1" xmlns="http://www.w3.org/2000/svg" xmlns:xlink="http://www.w3.org/1999/xlink" xml:space="preserve" xmlns:serif="http://www.serif.com/" style="fill-rule:evenodd;clip-rule:evenodd;stroke-linejoin:round;stroke-miterlimit:2;">
    <g transform="matrix(1,0,0,1,-451.085,-404.542)">
        <g transform="matrix(0.0665991,0,0,0.0665991,451.085,404.536)">
            <circle cx="682.56" cy="682.656" r="682.56" style="fill:rgb(107,130,161);"/>
        </g>
        <g transform="matrix(0.0665991,0,0,0.0665991,450.286,404.536)">
            <path d="M948.251,880.004L978.486,682.656L789.201,682.656L789.201,554.61C789.201,500.666 815.597,447.969 900.449,447.969L986.549,447.969L986.549,279.993C986.549,279.993 908.416,266.65 833.739,266.65C677.857,266.65 575.919,361.101 575.919,532.245L575.919,682.656L402.567,682.656L402.567,880.004L575.919,880.004L575.919,1356.96C610.666,1362.43 658.275,1365.22 694.558,1365.22C730.841,1365.22 754.453,1364.09 789.2,1358.71L789.201,880.004L948.251,880.004Z" style="fill:white;fill-rule:nonzero;"/>
        </g>
    </g>
</svg>
