<?xml version="1.0" encoding="UTF-8" standalone="no"?>
<!DOCTYPE svg PUBLIC "-//W3C//DTD SVG 1.1//EN" "http://www.w3.org/Graphics/SVG/1.1/DTD/svg11.dtd">
<svg width="100%" height="100%" viewBox="0 0 91 91" version="1.1" xmlns="http://www.w3.org/2000/svg" xmlns:xlink="http://www.w3.org/1999/xlink" xml:space="preserve" xmlns:serif="http://www.serif.com/" style="fill-rule:evenodd;clip-rule:evenodd;stroke-linejoin:round;stroke-miterlimit:2;">
    <g transform="matrix(1,0,0,1,-678.258,-404.755)">
        <g transform="matrix(0.564889,0,0,0.564889,580.915,403.05)">
            <circle cx="252.417" cy="83.114" r="80.095" style="fill:rgb(107,130,161);"/>
        </g>
        <g transform="matrix(0.124077,-1.5195e-17,1.5195e-17,0.124077,691.994,418.491)">
            <g>
                <path d="M363.273,0L148.728,0C66.719,0 0,66.719 0,148.728L0,363.272C0,445.281 66.719,512 148.728,512L363.272,512C445.281,512 512,445.281 512,363.273L512,148.728C512,66.719 445.281,0 363.273,0ZM472,363.272C472,423.225 423.225,472 363.273,472L148.728,472C88.775,472 40,423.225 40,363.273L40,148.728C40,88.775 88.775,40 148.728,40L363.272,40C423.225,40 472,88.775 472,148.728L472,363.272Z" style="fill:white;fill-rule:nonzero;"/>
            </g>
            <g>
                <path d="M256,118C179.906,118 118,179.906 118,256C118,332.094 179.906,394 256,394C332.094,394 394,332.094 394,256C394,179.906 332.094,118 256,118ZM256,354C201.963,354 158,310.037 158,256C158,201.963 201.963,158 256,158C310.037,158 354,201.963 354,256C354,310.037 310.037,354 256,354Z" style="fill:white;fill-rule:nonzero;"/>
            </g>
            <g>
                <circle cx="396" cy="116" r="20" style="fill:white;"/>
            </g>
        </g>
    </g>
</svg>
