<?xml version="1.0" encoding="UTF-8" standalone="no"?>
<!DOCTYPE svg PUBLIC "-//W3C//DTD SVG 1.1//EN" "http://www.w3.org/Graphics/SVG/1.1/DTD/svg11.dtd">
<svg width="100%" height="100%" viewBox="0 0 91 91" version="1.1" xmlns="http://www.w3.org/2000/svg" xmlns:xlink="http://www.w3.org/1999/xlink" xml:space="preserve" xmlns:serif="http://www.serif.com/" style="fill-rule:evenodd;clip-rule:evenodd;stroke-linejoin:round;stroke-miterlimit:2;">
    <g transform="matrix(1,0,0,1,-678.258,-404.755)">
        <g transform="matrix(0.564889,0,0,0.564889,580.915,403.05)">
            <circle cx="252.417" cy="83.114" r="80.095" style="fill:rgb(107,130,161);"/>
        </g>
        <g transform="matrix(1,0,0,1,1,0.213201)">
            <g transform="matrix(0.17096,0,0,0.17096,684.547,410.831)">
                <path d="M386.884,241.682C386.884,201.686 354.461,169.262 314.464,169.262L302.994,169.262C281.112,169.262 261.78,180.18 250.152,196.868C248.884,198.687 247.71,200.576 246.632,202.526C246.259,202.47 246.038,202.441 246.033,202.451L246.033,179.033C246.033,176.624 244.08,174.67 241.67,174.67L185.875,174.67C183.466,174.67 181.512,176.623 181.512,179.033L181.512,382.11C181.512,384.519 183.464,386.472 185.873,386.473L242.884,386.487C245.294,386.488 247.248,384.534 247.248,382.124L247.248,264.801C247.248,244.521 263.423,227.682 283.702,227.453C294.054,227.336 303.439,231.484 310.203,238.252C316.878,244.923 321.005,254.147 321.005,264.331L321.005,382.139C321.005,384.548 322.958,386.501 325.366,386.502L382.518,386.516C384.928,386.517 386.882,384.563 386.882,382.153L386.882,241.682L386.884,241.682Z" style="fill:white;fill-rule:nonzero;"/>
            </g>
            <g>
                <g transform="matrix(0.17096,0,0,0.17096,684.547,410.831)">
                    <path d="M129.431,386.471L84.71,386.471C78.906,386.471 74.201,381.766 74.201,375.962L74.201,185.18C74.201,179.376 78.906,174.671 84.71,174.671L129.431,174.671C135.235,174.671 139.94,179.376 139.94,185.18L139.94,375.963C139.939,381.766 135.235,386.471 129.431,386.471Z" style="fill:white;fill-rule:nonzero;"/>
                </g>
                <g transform="matrix(0.17096,0,0,0.17096,684.547,410.831)">
                    <path d="M107.255,69.215C128.128,69.232 145.343,86.472 145.298,107.449C145.248,129.414 127.02,145.969 106.998,145.492C86.69,145.903 68.843,128.941 68.847,107.304C68.847,86.319 86.129,69.199 107.255,69.215Z" style="fill:white;fill-rule:nonzero;"/>
                </g>
            </g>
        </g>
    </g>
</svg>
