<?xml version="1.0" encoding="utf-8"?>
<!-- Generator: Adobe Illustrator 22.1.0, SVG Export Plug-In . SVG Version: 6.00 Build 0)  -->
<svg version="1.1" id="Camada_1" xmlns="http://www.w3.org/2000/svg" xmlns:xlink="http://www.w3.org/1999/xlink" x="0px" y="0px"
	 viewBox="11.19 93.23 263.5 112.56" style="enable-background:new 0 0 285 290.2;" xml:space="preserve">
<style type="text/css">
	.st0{fill:#F4CB1C;}
	.st1{fill:#8DB33A;}
	.st2{fill:#6C82A0;}
	.st3{fill:#D27103;}
	.st4{fill:#6E787F;}
</style>
<polygon class="st0" points="185.3,168.4 142.7,150.7 130.7,167.6 "/>
<path class="st1" d="M176.4,149.5c-0.2-7.9,1.3-15.6,4-22.7C167.1,107.4,138.6,94,109.6,94c-9.8,0-35.1,2.1-47.7,18.9l124,53
	c1.6-4.8,2.5-9.8,2.5-15c0-1.8-0.1-3.7-0.4-5.4L176.4,149.5z"/>
<path class="st2" d="M274.7,113.6c-11.3-14.8-30.6-23-50.8-19.6c-26.3,4.3-44.9,26.7-44.4,51.6L274.7,113.6z"/>
<circle class="st3" cx="209.9" cy="159.5" r="19.1"/>
<g>
	<path class="st4" d="M11.2,197v-24.9h11c1.2,0,2.3,0.2,3.3,0.6c1,0.4,1.8,1,2.5,1.7s1.2,1.6,1.6,2.6c0.4,1,0.6,2,0.6,3.2
		s-0.2,2.2-0.6,3.1c-0.4,1-0.9,1.8-1.6,2.5c-0.7,0.7-1.5,1.2-2.5,1.6c-1,0.4-2.1,0.6-3.3,0.6h-5.8v9H11.2z M21.3,183.7
		c1.5,0,2.6-0.3,3.2-1c0.7-0.7,1-1.6,1-2.7c0-1.1-0.3-1.9-1-2.6c-0.7-0.7-1.7-1-3.2-1h-5v7.3H21.3z"/>
	<path class="st4" d="M31.3,176.3v-4.5h4.9v4.5H31.3z M31.3,197v-18.5h4.9V197H31.3z"/>
	<path class="st4" d="M50.1,197v-11.2c0-1.4-0.2-2.4-0.7-2.9c-0.5-0.5-1.3-0.8-2.4-0.8c-2.5,0-3.8,1.4-3.8,4.2V197h-4.9v-18.5h4.7
		v2.7c0.6-1,1.3-1.8,2.3-2.4c1-0.5,2.2-0.8,3.7-0.8c0.9,0,1.7,0.1,2.4,0.4s1.4,0.7,1.9,1.2c0.5,0.5,1,1.2,1.3,1.9
		c0.3,0.8,0.5,1.6,0.5,2.6V197H50.1z"/>
	<path class="st4" d="M69.8,197l0-2.2c-1.1,1.8-2.8,2.7-5.1,2.7c-1.2,0-2.2-0.2-3.2-0.7c-1-0.5-1.8-1.1-2.5-2
		c-0.7-0.8-1.3-1.9-1.7-3.1c-0.4-1.2-0.6-2.6-0.6-4.2c0-1.4,0.2-2.7,0.5-3.8c0.3-1.2,0.8-2.2,1.5-3c0.6-0.8,1.4-1.5,2.4-2
		c0.9-0.5,2-0.7,3.2-0.7c2.3,0,4.1,1,5.5,2.9v-9.2h4.8V197H69.8z M65.8,193.5c1.2,0,2.2-0.5,2.9-1.5c0.8-1,1.2-2.2,1.2-3.8
		c0-4-1.4-6-4.1-6c-2.8,0-4.2,1.9-4.2,5.7c0,1.6,0.4,3,1.2,4C63.5,193,64.5,193.5,65.8,193.5z"/>
	<path class="st4" d="M85.6,197.5c-1.5,0-2.8-0.2-4-0.7c-1.2-0.5-2.2-1.1-3-2c-0.8-0.8-1.4-1.9-1.9-3.1s-0.6-2.5-0.6-3.9
		c0-1.5,0.2-2.8,0.7-4s1.1-2.2,1.9-3.1c0.8-0.8,1.8-1.5,3-2c1.2-0.5,2.5-0.7,4-0.7c1.5,0,2.8,0.2,3.9,0.7c1.1,0.5,2.1,1.1,2.9,2
		c0.8,0.8,1.4,1.9,1.9,3.1c0.4,1.2,0.7,2.5,0.7,4c0,1.5-0.2,2.8-0.7,4c-0.4,1.2-1.1,2.2-1.9,3.1c-0.8,0.8-1.8,1.5-3,2
		C88.3,197.2,87,197.5,85.6,197.5z M85.6,193.4c3,0,4.5-1.9,4.5-5.6c0-3.7-1.5-5.6-4.5-5.6s-4.5,1.9-4.5,5.6
		C81.1,191.5,82.6,193.4,85.6,193.4z"/>
	<path class="st4" d="M109.5,194.5c-0.3,0.8-1,1.5-1.9,1.9c-0.9,0.5-2,0.7-3.2,0.7c-1.5,0-2.8-0.3-3.8-0.8c-1-0.5-1.9-1.2-2.5-2.1
		c-0.6-0.9-1.1-1.9-1.4-3c-0.3-1.2-0.4-2.3-0.4-3.5c0-1.4,0.2-2.7,0.6-3.9c0.4-1.2,1-2.2,1.7-3c0.7-0.8,1.6-1.5,2.5-2
		c1-0.5,2-0.7,3.2-0.7c2.3,0,4,0.9,5.2,2.8v-2.3h4.9v18.6c0,1.4-0.2,2.6-0.7,3.7c-0.5,1.1-1.1,2-2,2.7c-0.8,0.7-1.8,1.3-2.9,1.6
		s-2.3,0.6-3.6,0.6s-2.5-0.2-3.6-0.5c-1.1-0.4-2-0.9-2.8-1.5c-0.8-0.7-1.4-1.5-1.9-2.4c-0.4-1-0.7-2-0.7-3.2h4.5
		c0,1.1,0.4,2,1.1,2.6c0.7,0.6,1.7,0.9,2.9,0.9c1.3,0,2.4-0.4,3.3-1.1c0.9-0.7,1.3-1.7,1.3-2.9V194.5z M105.5,193.3
		c1.2,0,2.2-0.5,3-1.4c0.8-0.9,1.2-2.2,1.2-3.7c0-4-1.4-5.9-4.2-5.9s-4.2,1.9-4.2,5.6c0,1.6,0.4,3,1.2,3.9
		C103.3,192.8,104.3,193.3,105.5,193.3z"/>
	<path class="st4" d="M116.4,197v-18.5h4.6v2.2c0.4-0.6,0.8-1.1,1.3-1.5c0.4-0.3,0.9-0.6,1.3-0.8s0.9-0.3,1.4-0.4
		c0.5,0,1-0.1,1.5-0.1h0.6v5c-0.5-0.1-0.9-0.1-1.3-0.1c-3,0-4.5,1.5-4.5,4.5v9.6H116.4z"/>
	<path class="st4" d="M139,197c-0.1-0.5-0.2-1-0.3-1.7c-0.6,0.7-1.3,1.2-2.3,1.6s-2,0.6-3.3,0.6c-2.1,0-3.7-0.5-4.7-1.4
		c-1-0.9-1.5-2.2-1.5-3.7c0-1.3,0.2-2.4,0.6-3.2c0.4-0.8,1-1.4,1.8-1.9s1.6-0.8,2.7-1c1-0.2,2.2-0.4,3.4-0.6c1.2-0.2,2-0.4,2.5-0.7
		c0.4-0.3,0.6-0.8,0.6-1.4c0-0.6-0.3-1.1-0.8-1.4c-0.6-0.3-1.3-0.5-2.3-0.5c-1.1,0-1.9,0.2-2.4,0.8s-0.8,1.2-0.9,2h-4.5
		c0-0.9,0.2-1.8,0.5-2.6c0.3-0.8,0.8-1.5,1.4-2.1c0.6-0.6,1.5-1,2.5-1.3s2.3-0.5,3.8-0.5c1.5,0,2.7,0.2,3.7,0.5s1.8,0.8,2.4,1.4
		c0.6,0.6,1.1,1.4,1.3,2.3c0.3,0.9,0.4,1.9,0.4,3.1V197H139z M138.6,187.9c-0.3,0.2-0.6,0.5-1.1,0.6c-0.5,0.2-1.2,0.3-2.1,0.5
		c-1.4,0.3-2.4,0.6-2.9,1c-0.5,0.4-0.8,1-0.8,1.8c0,1.4,0.8,2.1,2.4,2.1c0.6,0,1.2-0.1,1.7-0.3c0.5-0.2,1-0.5,1.4-0.9
		c0.4-0.4,0.7-0.8,0.9-1.3c0.2-0.5,0.4-1,0.4-1.6L138.6,187.9z"/>
	<path class="st4" d="M167.2,197v-11.2c0-1.1-0.3-2-0.8-2.7c-0.5-0.7-1.2-1.1-2.1-1.1c-0.9,0-1.6,0.4-2.2,1.1
		c-0.6,0.8-0.9,1.7-0.9,2.8v11h-4.9v-11.1c0-0.8,0-1.4-0.1-1.8c-0.1-0.5-0.3-0.8-0.5-1.1c-0.2-0.3-0.5-0.5-0.9-0.6s-0.8-0.2-1.3-0.2
		c-2,0-3,1.2-3,3.6V197h-4.9v-18.5h4.6v2.7c0.6-1.2,1.4-2.1,2.2-2.5s1.9-0.7,3.2-0.7c0.6,0,1.2,0,1.7,0.1c0.5,0.1,0.9,0.3,1.3,0.5
		c0.4,0.2,0.8,0.5,1.1,0.9c0.3,0.4,0.7,0.8,1,1.3c0.5-1,1.2-1.8,2-2.2c0.8-0.5,1.8-0.7,3-0.7c0.9,0,1.8,0.2,2.5,0.5
		c0.8,0.3,1.4,0.8,2,1.3s1,1.2,1.3,2s0.5,1.6,0.5,2.4V197H167.2z"/>
	<path class="st4" d="M185.2,197c-0.2-0.5-0.2-1-0.3-1.7c-0.6,0.7-1.3,1.2-2.3,1.6s-2.1,0.6-3.3,0.6c-2.1,0-3.7-0.5-4.7-1.4
		s-1.5-2.2-1.5-3.7c0-1.3,0.2-2.4,0.6-3.2c0.4-0.8,1-1.4,1.8-1.9s1.6-0.8,2.7-1c1-0.2,2.2-0.4,3.4-0.6c1.2-0.2,2-0.4,2.5-0.7
		c0.4-0.3,0.6-0.8,0.6-1.4c0-0.6-0.3-1.1-0.8-1.4c-0.6-0.3-1.3-0.5-2.3-0.5c-1.1,0-1.9,0.2-2.4,0.8c-0.5,0.5-0.8,1.2-0.9,2h-4.5
		c0-0.9,0.2-1.8,0.5-2.6c0.3-0.8,0.8-1.5,1.4-2.1s1.5-1,2.5-1.3c1-0.3,2.3-0.5,3.8-0.5c1.4,0,2.7,0.2,3.7,0.5c1,0.3,1.8,0.8,2.4,1.4
		c0.6,0.6,1.1,1.4,1.3,2.3c0.3,0.9,0.4,1.9,0.4,3.1V197H185.2z M184.9,187.9c-0.2,0.2-0.6,0.5-1.1,0.6c-0.5,0.2-1.2,0.3-2.1,0.5
		c-1.4,0.3-2.4,0.6-2.9,1c-0.5,0.4-0.8,1-0.8,1.8c0,1.4,0.8,2.1,2.4,2.1c0.6,0,1.2-0.1,1.7-0.3c0.5-0.2,1-0.5,1.4-0.9
		c0.4-0.4,0.7-0.8,0.9-1.3c0.2-0.5,0.4-1,0.4-1.6L184.9,187.9z"/>
</g>
</svg>
