<?xml version="1.0" standalone="no"?>
<!DOCTYPE svg PUBLIC "-//W3C//DTD SVG 20010904//EN"
 "http://www.w3.org/TR/2001/REC-SVG-20010904/DTD/svg10.dtd">
<svg version="1.0" xmlns="http://www.w3.org/2000/svg"
 width="700.000000pt" height="700.000000pt" viewBox="0 0 700.000000 700.000000"
 preserveAspectRatio="xMidYMid meet">
<metadata>
Created by potrace 1.11, written by Peter Selinger 2001-2013
</metadata>
<g transform="translate(0.000000,700.000000) scale(0.100000,-0.100000)"
fill="#000000" stroke="none">
<path d="M3499 6476 c-2 -2 -40 -7 -84 -10 -44 -3 -93 -8 -110 -10 -25 -3
-114 -14 -175 -21 -8 -1 -28 -5 -45 -8 -16 -4 -45 -9 -63 -12 -121 -20 -311
-68 -462 -117 -129 -42 -303 -107 -315 -119 -5 -5 -15 -9 -23 -9 -21 0 -272
-125 -397 -198 -204 -119 -417 -273 -590 -427 -146 -130 -329 -322 -415 -435
-14 -18 -30 -38 -35 -44 -17 -18 -137 -186 -178 -248 -107 -163 -226 -389
-302 -573 -115 -276 -214 -658 -239 -920 -3 -27 -8 -77 -12 -111 -12 -115 -12
-334 0 -334 6 0 211 68 456 151 245 82 452 152 460 154 8 2 143 47 300 100
157 53 371 125 475 160 177 59 1558 523 2625 882 256 86 839 282 1295 436 457
153 846 283 865 289 48 14 74 29 64 37 -5 3 -29 31 -54 61 -134 166 -318 353
-491 498 -269 226 -650 450 -984 577 -38 15 -79 31 -90 35 -75 33 -381 119
-517 146 -91 18 -265 44 -323 49 -38 4 -77 9 -85 12 -16 6 -545 14 -551 9z"/>
<path d="M1990 3219 c-370 -46 -692 -228 -904 -514 -229 -308 -314 -664 -245
-1035 12 -61 47 -195 58 -219 116 -248 195 -366 329 -491 97 -90 92 -86 167
-137 418 -282 956 -303 1391 -53 229 132 420 336 533 573 87 180 123 335 126
542 5 234 -34 406 -135 610 -109 220 -246 373 -476 532 -76 52 -251 127 -369
158 -139 36 -344 51 -475 34z"/>
</g>
</svg>
