<?xml version="1.0" encoding="UTF-8" standalone="no"?>
<!DOCTYPE svg PUBLIC "-//W3C//DTD SVG 1.1//EN" "http://www.w3.org/Graphics/SVG/1.1/DTD/svg11.dtd">
<svg width="100%" height="100%" viewBox="0 0 91 91" version="1.1" xmlns="http://www.w3.org/2000/svg" xmlns:xlink="http://www.w3.org/1999/xlink" xml:space="preserve" xmlns:serif="http://www.serif.com/" style="fill-rule:evenodd;clip-rule:evenodd;stroke-linejoin:round;stroke-miterlimit:2;">
    <g transform="matrix(1,0,0,1,-788.333,-404.755)">
        <g transform="matrix(0.564889,0,0,0.564889,690.99,403.05)">
            <circle cx="252.417" cy="83.114" r="80.095" style="fill:rgb(107,130,161);"/>
        </g>
        <g transform="matrix(0.124095,0,0,0.124095,716.141,427.731)">
            <g transform="matrix(1.60529,0,0,1.60529,575.883,-194.153)">
                <path d="M362.55,200.91C347.55,139.29 294.72,97.2 230.63,96.58C221.889,96.539 213.169,97.461 204.63,99.33C115.27,117.24 68.94,216.44 112.51,296.33C113.513,298.305 113.738,300.587 113.14,302.72C107.26,323.64 101.62,344.8 95.73,365.72C94.99,369.35 94.99,369.35 98.23,368.22C120.02,362.58 142.04,357.07 163.83,351.06C165.44,350.693 167.131,350.916 168.59,351.69C197.01,365.84 226.54,370.48 257.45,364.34C331.76,349.84 380.33,274.31 362.55,200.91ZM249.55,342.7C244.418,343.636 239.216,344.137 234,344.2C210.34,344.2 190.82,338.69 173,328.04C170.76,326.66 168.74,326.04 166,327.16C154.12,330.42 142.22,333.3 130,336.43C127.5,337.18 127.37,336.68 128,334.43C131,323.03 134.25,311.51 137.51,300.36C138.25,296.98 138.01,294.72 136.13,291.84C111.6,252.14 112.48,202.91 140.01,166.09C168.8,128.01 207.85,112.36 254.68,122.38C300.49,131.9 329.52,161.58 340.55,207.18C355.05,269.93 312.74,332.43 249.53,342.7L249.55,342.7Z" style="fill:white;"/>
            </g>
            <g transform="matrix(1.60529,0,0,1.60529,575.883,-194.153)">
                <path d="M265.92,296.6C261.196,296.64 256.496,295.921 252,294.47C220.84,285.47 197.55,266.16 178.79,240.36C172.02,230.97 165.27,221.07 163.14,208.92C160.51,194.52 164.51,182.24 175.28,172.47C178.66,169.34 189.17,167.96 193.28,169.97C194.748,170.701 195.839,172.021 196.28,173.6C200.41,182.87 204.16,192.26 207.92,201.28C208.625,202.993 208.488,204.942 207.55,206.54C205.67,210.92 202.55,214.3 199.15,217.94C196.91,220.19 196.65,222.45 198.53,225.7C209.47,244 224.87,257 244.4,265.17C247.4,266.42 249.66,266.05 251.65,263.54C254.91,259.28 258.53,255.15 261.65,251.02C263.65,248.26 266.29,247.51 269.16,248.89C275.93,251.89 282.16,255.03 288.94,258.28C290.434,258.87 291.896,259.538 293.32,260.28C299.83,263.79 299.83,263.79 299.2,271.05C298.07,285.2 287.43,292.47 274.67,295.97C271.793,296.561 268.852,296.772 265.92,296.6Z" style="fill:white;"/>
            </g>
        </g>
    </g>
</svg>
